<?xml version="1.0" encoding="utf-8"?>
<!-- Generator: Adobe Illustrator 24.0.2, SVG Export Plug-In . SVG Version: 6.00 Build 0)  -->
<svg version="1.1" id="Layer_1" xmlns="http://www.w3.org/2000/svg" xmlns:xlink="http://www.w3.org/1999/xlink" x="0px" y="0px"
	 viewBox="0 0 237.5 237.5" style="enable-background:new 0 0 237.5 237.5;" xml:space="preserve">
<style type="text/css">
	.st0{fill:#FFF200;}
</style>
<title>Asset 1</title>
<g id="Layer_2_1_">
	<g id="Layer_1-2">
		<g id="Layer_2-2">
			<g id="Layer_1-2-2">
				<polygon class="st0" points="237.5,118.7 184.2,136.3 221.6,178.1 166.6,166.6 178.1,221.6 136.3,184.2 118.7,237.5 
					101.2,184.2 59.3,221.6 70.9,166.6 15.9,178.1 53.3,136.3 0,118.7 53.3,101.2 15.9,59.3 70.9,70.9 59.3,15.9 101.2,53.3 
					118.7,0 136.3,53.3 178.1,15.9 166.6,70.9 221.6,59.3 184.2,101.2 				"/>
			</g>
		</g>
	</g>
</g>
<polygon points="125.6,146.6 125.6,132.3 111.9,132.3 111.9,146.6 90.5,146.6 90.9,118.3 104.7,104.5 118.7,90.9 132.8,104.5 
	146.5,118.3 147,146.6 "/>
</svg>
